#!OML:ASF E:\emotionWalksFemale\Project 1\Capture day 1\Session 1\Female1.ASF
:FULLY-SPECIFIED
:DEGREES
952
root 9.37996 15.5614 -15.0889 179.722 -7.8761 -181.012
lowerback 4.08852 -1.35013 -0.26029
upperback -1.49346 -1.8423 4.45842
thorax -3.68441 -0.933841 4.91022
lowerneck -3.71903 -2.97731 -8.24118
upperneck 32.5307 -17.2703 18.557
head 14.2384 -9.11051 6.07313
rclavicle -7.20594e-015 6.04305e-014
rhumerus -40.3572 -4.79984 -74.0797
rradius 30.8582
rwrist 18.8544
rhand -5.03713 -51.686
rfingers 7.12502
rthumb 20.7577 -80.5958
lclavicle -7.20594e-015 6.04305e-014
lhumerus -40.934 -6.98797 95.1448
lradius 37.3069
lwrist -17.4883
lhand -0.436207 -34.0935
lfingers 7.12502
lthumb 25.1725 -5.73334
rfemur -14.8781 24.5205 22.2164
rtibia 20.1072
rfoot -19.0039 -35.2215
rtoes 18.7039
lfemur 6.41973 -3.20291 -24.8299
ltibia 38.0462
lfoot 4.52611 -6.24526
ltoes 4.96207
953
root 9.39908 15.571 -15.1882 179.645 -8.09849 -180.888
lowerback 4.19618 -1.32385 -0.133253
upperback -1.47848 -1.80191 4.51305
thorax -3.73531 -0.91787 4.89667
lowerneck -3.5153 -3.07081 -8.30979
upperneck 32.2491 -17.2592 18.5957
head 14.0676 -9.10624 6.10465
rclavicle 1.77167e-014 -3.81667e-014
rhumerus -40.2665 -4.45005 -74.1272
rradius 31.2412
rwrist 18.3728
rhand -4.94268 -51.5742
rfingers 7.12502
rthumb 20.8485 -80.474
lclavicle 1.77167e-014 -3.81667e-014
lhumerus -40.8966 -7.11196 95.0167
lradius 37.3888
lwrist -17.6078
lhand -1.08286 -34.2185
lfingers 7.12502
lthumb 24.5528 -5.77281
rfemur -14.1697 23.9441 22.7616
rtibia 19.8083
rfoot -18.4499 -35.0543
rtoes 18.3069
lfemur 5.38169 -2.65515 -24.2238
ltibia 40.1488
lfoot 6.44083 -6.59465
ltoes 5.87701
954
root 9.41921 15.5775 -15.2878 179.484 -8.37343 -180.734
lowerback 4.40174 -1.39695 -0.0705586
upperback -1.44625 -1.89571 4.57632
thorax -3.81013 -0.966905 4.94158
lowerneck -3.52308 -3.0985 -8.24423
upperneck 32.253 -17.2358 18.4747
head 14.0435 -9.08888 6.04494
rclavicle -1.68718e-014 -4.77083e-015
rhumerus -40.0834 -4.12591 -74.2335
rradius 31.4318
rwrist 18.246
rhand -5.08922 -50.952
rfingers 7.12502
rthumb 20.7077 -79.8672
lclavicle -1.68718e-014 -4.77083e-015
lhumerus -40.6118 -7.23714 94.728
lradius 37.4
lwrist -17.2993
lhand -1.18874 -34.15
lfingers 7.12502
lthumb 24.4513 -5.69055
rfemur -13.2337 23.6244 23.3434
rtibia 19.246
rfoot -17.7689 -35.2905
rtoes 16.7907
lfemur 4.37806 -2.18202 -23.6041
ltibia 42.3523
lfoot 7.90355 -7.03003
ltoes 6.35064
955
root 9.44158 15.5886 -15.3831 179.415 -8.53594 -180.427
lowerback 4.52731 -1.36255 0.205143
upperback -1.45518 -1.83848 4.6762
thorax -3.90055 -0.947771 4.89182
lowerneck -3.70103 -3.1506 -8.43551
upperneck 32.3908 -17.3715 18.5427
head 14.2049 -9.15343 6.08511
rclavicle -2.05494e-014 -6.52014e-014
rhumerus -39.9973 -3.76277 -74.3074
rradius 31.7493
rwrist 17.8663
rhand -5.10966 -50.7517
rfingers 7.12502
rthumb 20.688 -79.6691
lclavicle -2.05494e-014 -6.52014e-014
lhumerus -39.9127 -7.98806 94.5769
lradius 37.0899
lwrist -16.384
lhand -0.891417 -33.8786
lfingers 7.12502
lthumb 24.7363 -5.45788
rfemur -12.5198 23.5432 23.9998
rtibia 18.7166
rfoot -17.0289 -35.5794
rtoes 15.6372
lfemur 3.22438 -1.75108 -22.845
ltibia 44.5165
lfoot 9.49382 -7.15758
ltoes 7.10346
956
root 9.4626 15.6009 -15.4809 179.37 -8.66869 -180.084
lowerback 4.43867 -1.36855 0.474403
upperback -1.47694 -1.84202 4.77592
thorax -3.87774 -0.960733 4.84183
lowerneck -3.42613 -3.09631 -8.3619
upperneck 32.3299 -17.2879 18.5248
head 14.0861 -9.13262 6.0882
rclavicle 1.3418e-015 -1.03368e-013
rhumerus -39.816 -3.03647 -74.6207
rradius 31.9588
rwrist 17.1125
rhand -5.24323 -50.9925
rfingers 7.12502
rthumb 20.5597 -79.9238
lclavicle 1.3418e-015 -1.03368e-013
lhumerus -40.0809 -7.86696 94.2944
lradius 37.3981
lwrist -16.2389
lhand -1.10604 -33.8496
lfingers 7.12502
lthumb 24.5306 -5.40084
rfemur -11.8037 23.536 24.6632
rtibia 18.0829
rfoot -17.2287 -35.6231
rtoes 17.8947
lfemur 2.02276 -1.4024 -22.0883
ltibia 46.6839
lfoot 11.0535 -7.24795
ltoes 7.3922
957
root 9.48096 15.6064 -15.5772 179.237 -8.87802 -179.81
lowerback 4.53156 -1.37511 0.705704
upperback -1.34858 -1.84578 4.8415
thorax -3.80143 -0.973192 4.77958
lowerneck -3.60954 -3.19294 -8.28365
upperneck 32.2481 -17.3264 18.4865
head 14.086 -9.10827 6.04128
rclavicle 1.67973e-014 -7.95139e-015
rhumerus -39.2024 -2.55584 -74.8921
rradius 31.9368
rwrist 16.53
rhand -5.36003 -51.2055
rfingers 7.12502
rthumb 20.4475 -80.1488
lclavicle 1.67973e-014 -7.95139e-015
lhumerus -39.7431 -7.91944 93.9858
lradius 37.6182
lwrist -15.9744
lhand -1.45401 -33.8466
lfingers 7.12502
lthumb 24.197 -5.35304
rfemur -10.8758 23.4144 25.2989
rtibia 17.3009
rfoot -16.6964 -35.7922
rtoes 17.998
lfemur 0.886328 -1.14404 -21.4497
ltibia 48.8454
lfoot 12.4708 -7.39853
ltoes 7.04843
958
root 9.49834 15.6094 -15.6674 179.06 -9.01938 -179.451
lowerback 4.72762 -1.41355 0.984004
upperback -1.29378 -1.88551 4.93552
thorax -3.85789 -1.00389 4.73041
lowerneck -3.60154 -3.1849 -8.3982
upperneck 32.2074 -17.3884 18.6725
head 14.115 -9.14142 6.13065
rclavicle -4.37326e-015 -4.6118e-014
rhumerus -38.8619 -2.16867 -75.0812
rradius 32.1373
rwrist 16.3306
rhand -5.26151 -51.2776
rfingers 7.12502
rthumb 20.5421 -80.2108
lclavicle -4.37326e-015 -4.6118e-014
lhumerus -39.4752 -7.77288 93.6374
lradius 37.7319
lwrist -15.6103
lhand -1.7209 -33.8297
lfingers 7.12502
lthumb 23.9411 -5.30235
rfemur -9.96457 23.1649 26.0323
rtibia 16.5384
rfoot -14.7204 -35.9698
rtoes 13.8314
lfemur -0.212582 -0.857444 -20.7622
ltibia 50.9674
lfoot 13.9152 -7.47174
ltoes 5.50005
959
root 9.51469 15.6085 -15.7568 178.831 -9.04322 -178.891
lowerback 4.88346 -1.31465 1.5651
upperback -1.23926 -1.73353 5.10736
thorax -3.91191 -0.951288 4.57582
lowerneck -3.57944 -3.22603 -8.81824
upperneck 32.1901 -17.5484 18.9817
head 14.2188 -9.24558 6.31711
rclavicle 3.02153e-014 -1.04958e-013
rhumerus -38.6466 -2.05196 -74.9554
rradius 32.4168
rwrist 16.3458
rhand -5.18872 -51.3104
rfingers 7.12502
rthumb 20.6121 -80.236
lclavicle 3.02153e-014 -1.04958e-013
lhumerus -39.1701 -7.69697 93.5178
lradius 37.7355
lwrist -15.3776
lhand -2.03337 -33.9199
lfingers 7.12502
lthumb 23.6414 -5.35349
rfemur -9.07555 22.7544 26.9947
rtibia 15.8403
rfoot -13.4151 -35.7515
rtoes 11.4943
lfemur -1.22826 -0.547825 -19.8741
ltibia 53.0298
lfoot 15.305 -7.28536
ltoes 5.81895
960
root 9.52841 15.6048 -15.8476 178.566 -9.12474 -178.483
lowerback 4.96653 -1.36648 1.90598
upperback -1.1765 -1.79476 5.21985
thorax -3.89607 -0.996712 4.50812
lowerneck -3.38423 -3.11749 -8.54969
upperneck 32.2942 -17.3531 18.7209
head 14.1183 -9.1635 6.20074
rclavicle 1.16289e-014 3.18055e-015
rhumerus -38.3645 -1.61199 -75.0858
rradius 32.5284
rwrist 16.5231
rhand -5.02736 -51.5647
rfingers 7.12502
rthumb 20.7671 -80.4734
lclavicle 1.16289e-014 3.18055e-015
lhumerus -38.9232 -7.20927 93.0927
lradius 37.6909
lwrist -15.517
lhand -2.69574 -34.117
lfingers 7.12502
lthumb 23.0059 -5.46999
rfemur -8.06352 22.1866 27.8123
rtibia 15.113
rfoot -13.0082 -35.3974
rtoes 10.9705
lfemur -2.19221 -0.405665 -19.2061
ltibia 54.9901
lfoot 16.5562 -6.60265
ltoes 8.36104
961
root 9.54015 15.6059 -15.9332 178.421 -9.1739 -178.277
lowerback 5.03071 -1.25207 2.28152
upperback -1.05557 -1.62931 5.2424
thorax -3.82614 -0.927714 4.30494
lowerneck -3.60356 -3.2 -8.53109
upperneck 32.4299 -17.4238 18.5971
head 14.2294 -9.16872 6.13029
rclavicle 2.08227e-014 -7.4743e-014
rhumerus -37.9211 -1.56723 -74.9966
rradius 32.5021
rwrist 16.5969
rhand -5.12749 -51.6728
rfingers 7.12502
rthumb 20.6709 -80.592
lclavicle 2.08227e-014 -7.4743e-014
lhumerus -38.3521 -7.14148 92.9139
lradius 37.4016
lwrist -15.6871
lhand -3.61728 -34.4097
lfingers 7.12502
lthumb 22.1214 -5.65518
rfemur -7.2148 21.7311 28.3326
rtibia 14.4457
rfoot -12.7241 -35.1203
rtoes 10.0502
lfemur -3.30607 -0.291011 -18.832
ltibia 56.8438
lfoot 17.4778 -5.97241
ltoes 7.67336
962
root 9.55243 15.609 -16.013 178.323 -9.23084 -178.004
lowerback 5.10243 -1.27093 2.58094
upperback -0.919676 -1.64716 5.26241
thorax -3.73166 -0.947599 4.15687
lowerneck -3.8839 -3.18515 -8.29455
upperneck 32.5754 -17.4254 18.5091
head 14.3305 -9.1212 6.04189
rclavicle 2.13072e-014 -2.54444e-014
rhumerus -37.2441 -1.23682 -75.2613
rradius 32.3931
rwrist 16.469
rhand -5.46544 -51.5387
rfingers 7.12502
rthumb 20.3462 -80.4929
lclavicle 2.13072e-014 -2.54444e-014
lhumerus -37.6719 -6.8914 92.48
lradius 37.1104
lwrist -15.5244
lhand -4.4704 -34.7722
lfingers 7.12502
lthumb 21.3022 -5.92297
rfemur -6.58224 21.4542 28.8718
rtibia 13.9792
rfoot -12.5504 -35.0028
rtoes 9.11858
lfemur -4.52707 -0.192184 -18.3932
ltibia 58.6021
lfoot 18.0892 -5.24706
ltoes 6.31076
963
root 9.56603 15.6046 -16.095 178.074 -9.37433 -177.646
lowerback 5.25319 -1.23849 2.979
upperback -0.822877 -1.58819 5.33289
thorax -3.72745 -0.933143 4.00485
lowerneck -3.77355 -3.21237 -8.31614
upperneck 32.4803 -17.448 18.5766
head 14.2766 -9.13041 6.0738
rclavicle -3.71727e-014 -3.18055e-014
rhumerus -36.8373 -0.90158 -75.3415
rradius 32.427
rwrist 16.3297
rhand -5.6333 -51.6065
rfingers 7.12502
rthumb 20.1848 -80.5779
lclavicle -3.71727e-014 -3.18055e-014
lhumerus -37.1421 -6.39208 92.1312
lradius 37.0154
lwrist -15.5805
lhand -4.90589 -35.0389
lfingers 7.12502
lthumb 20.8838 -6.14299
rfemur -5.84937 21.282 29.5679
rtibia 13.6702
rfoot -12.6283 -35.0483
rtoes 8.70445
lfemur -5.53716 -0.186632 -17.8594
ltibia 60.2869
lfoot 18.1637 -4.37814
ltoes 5.16449
